# xmcd
#
# Track frame offsets:
#	150
#	10875
#	24980
#	33532
#	45975
#	54814
#	64912
#	77895
#	91450
#	103322
#	116480
#
# Disc length: 1728 seconds
#
# Revision: 0
# Processed by: cddbd v1.5PL3 Copyright (c) Steve Scherf et al.
# Submitted via: dBpowerAMP V4.0
#
DISCID=8406be0b
DTITLE=Vicente Fernandez - El Remedio
DYEAR=1900
DGENRE=
TTITLE0=El Remedio
TTITLE1=Camino De Canutillo
TTITLE2=Me Acerudo Mas De Ti
TTITLE3=Quise Quererte Mucho
TTITLE4=Pideme Lo Que Quieras
TTITLE5=Sigue Tu Camino
TTITLE6=Un Minuto De Silencio
TTITLE7=Soy De Abajo
TTITLE8=Perdon madrecita
TTITLE9=Del Dolor
TTITLE10=Ya Es Por Demas
EXTD=
EXTT0=
EXTT1=
EXTT2=
EXTT3=
EXTT4=
EXTT5=
EXTT6=
EXTT7=
EXTT8=
EXTT9=
EXTT10=
PLAYORDER=
